<mxfile host="65bd71144e" scale="1" border="15">
    <diagram id="4HE4Q98xuia7YzqyNeRx" name="Page-1">
        <mxGraphModel dx="603" dy="647" grid="0" gridSize="10" guides="1" tooltips="1" connect="1" arrows="1" fold="1" page="1" pageScale="1" pageWidth="827" pageHeight="1169" background="#ffffff" math="0" shadow="0">
            <root>
                <mxCell id="0"/>
                <mxCell id="1" parent="0"/>
                <mxCell id="14" style="edgeStyle=none;html=1;entryX=0.5;entryY=0;entryDx=0;entryDy=0;dashed=1;dashPattern=8 8;strokeColor=#000000;fontColor=#000000;endArrow=none;endFill=0;exitX=0.5;exitY=1;exitDx=0;exitDy=0;" parent="1" source="3" target="12" edge="1">
                    <mxGeometry relative="1" as="geometry">
                        <mxPoint x="210" y="85" as="sourcePoint"/>
                    </mxGeometry>
                </mxCell>
                <mxCell id="3" value="Chirp.Razor" style="html=1;strokeColor=#006EAF;strokeWidth=2;fillColor=#1ba1e2;fontColor=#ffffff;" parent="1" vertex="1">
                    <mxGeometry x="165" y="55" width="90" height="25" as="geometry"/>
                </mxCell>
                <mxCell id="4" value="&lt;font color=&quot;#000000&quot;&gt;Actor&lt;/font&gt;" style="shape=umlActor;verticalLabelPosition=bottom;verticalAlign=top;html=1;strokeColor=#000000;strokeWidth=2;" parent="1" vertex="1">
                    <mxGeometry x="70" y="50" width="20" height="40" as="geometry"/>
                </mxCell>
                <mxCell id="8" value="" style="endArrow=none;html=1;strokeColor=#000000;" parent="1" edge="1">
                    <mxGeometry width="50" height="50" relative="1" as="geometry">
                        <mxPoint x="80" y="122" as="sourcePoint"/>
                        <mxPoint x="80" y="350" as="targetPoint"/>
                    </mxGeometry>
                </mxCell>
                <mxCell id="10" value="" style="endArrow=open;html=1;strokeColor=#000000;fontColor=#000000;endFill=0;" parent="1" edge="1">
                    <mxGeometry width="50" height="50" relative="1" as="geometry">
                        <mxPoint x="80" y="135" as="sourcePoint"/>
                        <mxPoint x="200" y="135" as="targetPoint"/>
                    </mxGeometry>
                </mxCell>
                <mxCell id="11" value="Sequence Diagram" style="shape=umlFrame;whiteSpace=wrap;html=1;strokeColor=#000000;strokeWidth=2;width=120;height=20;" parent="1" vertex="1">
                    <mxGeometry x="50" y="23.25" width="580" height="369.75" as="geometry"/>
                </mxCell>
                <mxCell id="45" style="edgeStyle=none;html=1;exitX=0;exitY=1;exitDx=0;exitDy=0;dashed=1;strokeColor=#000000;fontColor=#000000;endArrow=open;endFill=0;targetPerimeterSpacing=18;" parent="1" source="12" edge="1">
                    <mxGeometry relative="1" as="geometry">
                        <mxPoint x="80" y="335" as="targetPoint"/>
                    </mxGeometry>
                </mxCell>
                <mxCell id="46" style="edgeStyle=none;html=1;exitX=1;exitY=0.75;exitDx=0;exitDy=0;strokeColor=#000000;fontColor=#000000;endArrow=open;endFill=0;targetPerimeterSpacing=18;entryX=-0.039;entryY=0.144;entryDx=0;entryDy=0;entryPerimeter=0;" parent="1" source="12" target="48" edge="1">
                    <mxGeometry relative="1" as="geometry">
                        <mxPoint x="310" y="281.94029850746267" as="targetPoint"/>
                    </mxGeometry>
                </mxCell>
                <mxCell id="12" value="" style="html=1;strokeColor=#10739e;strokeWidth=1;fillColor=#b1ddf0;" parent="1" vertex="1">
                    <mxGeometry x="200" y="123" width="20" height="212" as="geometry"/>
                </mxCell>
                <mxCell id="13" value="GET" style="text;html=1;strokeColor=none;fillColor=none;align=center;verticalAlign=middle;whiteSpace=wrap;rounded=0;strokeWidth=1;fontColor=#000000;" parent="1" vertex="1">
                    <mxGeometry x="100" y="115" width="60" height="20" as="geometry"/>
                </mxCell>
                <mxCell id="15" style="edgeStyle=none;html=1;entryX=0.5;entryY=0;entryDx=0;entryDy=0;dashed=1;dashPattern=8 8;strokeColor=#000000;fontColor=#000000;endArrow=none;endFill=0;exitX=0.5;exitY=1;exitDx=0;exitDy=0;" parent="1" target="17" edge="1">
                    <mxGeometry relative="1" as="geometry">
                        <mxPoint x="441" y="72.5" as="sourcePoint"/>
                    </mxGeometry>
                </mxCell>
                <mxCell id="16" value="Chirp.Infrastructure" style="html=1;strokeColor=#006EAF;strokeWidth=2;fillColor=#1ba1e2;fontColor=#ffffff;" parent="1" vertex="1">
                    <mxGeometry x="386" y="55.5" width="110" height="25" as="geometry"/>
                </mxCell>
                <mxCell id="31" style="edgeStyle=none;html=1;entryX=0;entryY=0.25;entryDx=0;entryDy=0;dashed=1;strokeColor=#000000;fontColor=#000000;endArrow=open;endFill=0;targetPerimeterSpacing=18;" parent="1" edge="1">
                    <mxGeometry relative="1" as="geometry">
                        <mxPoint x="450" y="162" as="sourcePoint"/>
                        <mxPoint x="555" y="161.875" as="targetPoint"/>
                    </mxGeometry>
                </mxCell>
                <mxCell id="18" style="edgeStyle=none;html=1;exitX=0.5;exitY=1;exitDx=0;exitDy=0;entryX=0.5;entryY=0;entryDx=0;entryDy=0;dashed=1;dashPattern=8 8;strokeColor=#000000;fontColor=#000000;endArrow=none;endFill=0;" parent="1" source="19" target="20" edge="1">
                    <mxGeometry relative="1" as="geometry"/>
                </mxCell>
                <mxCell id="19" value="Chirp.Core" style="html=1;strokeColor=#006EAF;strokeWidth=2;fillColor=#1ba1e2;fontColor=#ffffff;" parent="1" vertex="1">
                    <mxGeometry x="275" y="55" width="90" height="25" as="geometry"/>
                </mxCell>
                <mxCell id="25" style="edgeStyle=none;html=1;exitX=1;exitY=0.25;exitDx=0;exitDy=0;entryX=0;entryY=0.25;entryDx=0;entryDy=0;strokeColor=#000000;fontColor=#000000;endArrow=open;endFill=0;dashed=1;" parent="1" edge="1">
                    <mxGeometry relative="1" as="geometry">
                        <mxPoint x="331" y="151.5" as="sourcePoint"/>
                        <mxPoint x="431" y="151.5" as="targetPoint"/>
                    </mxGeometry>
                </mxCell>
                <mxCell id="22" value="" style="endArrow=openThin;html=1;strokeColor=#000000;fontColor=#000000;exitX=1;exitY=0.25;exitDx=0;exitDy=0;entryX=0;entryY=0.25;entryDx=0;entryDy=0;endFill=0;" parent="1" edge="1">
                    <mxGeometry width="50" height="50" relative="1" as="geometry">
                        <mxPoint x="220" y="142.5" as="sourcePoint"/>
                        <mxPoint x="311" y="142.5" as="targetPoint"/>
                    </mxGeometry>
                </mxCell>
                <mxCell id="23" value="GetCheeps" style="text;html=1;strokeColor=none;fillColor=none;align=center;verticalAlign=middle;whiteSpace=wrap;rounded=0;strokeWidth=1;fontColor=#000000;" parent="1" vertex="1">
                    <mxGeometry x="347" y="135" width="60" height="20" as="geometry"/>
                </mxCell>
                <mxCell id="27" style="edgeStyle=none;html=1;entryX=0.5;entryY=0;entryDx=0;entryDy=0;dashed=1;dashPattern=8 8;strokeColor=#000000;fontColor=#000000;endArrow=none;endFill=0;exitX=0.5;exitY=1;exitDx=0;exitDy=0;" parent="1" target="29" edge="1">
                    <mxGeometry relative="1" as="geometry">
                        <mxPoint x="565" y="71.99999999999994" as="sourcePoint"/>
                    </mxGeometry>
                </mxCell>
                <mxCell id="28" value="SQL Server" style="html=1;strokeColor=#006EAF;strokeWidth=2;fillColor=#1ba1e2;fontColor=#ffffff;" parent="1" vertex="1">
                    <mxGeometry x="510" y="55" width="110" height="25" as="geometry"/>
                </mxCell>
                <mxCell id="37" style="edgeStyle=none;html=1;exitX=0;exitY=1;exitDx=0;exitDy=0;strokeColor=#000000;fontColor=#000000;endArrow=open;endFill=0;targetPerimeterSpacing=18;entryX=1.026;entryY=0.931;entryDx=0;entryDy=0;entryPerimeter=0;" parent="1" edge="1">
                    <mxGeometry relative="1" as="geometry">
                        <mxPoint x="555" y="223.25" as="sourcePoint"/>
                        <mxPoint x="451.52" y="222.858" as="targetPoint"/>
                    </mxGeometry>
                </mxCell>
                <mxCell id="29" value="" style="html=1;strokeColor=#10739e;strokeWidth=1;fillColor=#b1ddf0;" parent="1" vertex="1">
                    <mxGeometry x="555" y="137.75" width="20" height="104.5" as="geometry"/>
                </mxCell>
                <mxCell id="34" value="GetCheeps" style="text;html=1;strokeColor=none;fillColor=none;align=center;verticalAlign=middle;whiteSpace=wrap;rounded=0;strokeWidth=1;fontColor=#000000;" parent="1" vertex="1">
                    <mxGeometry x="231" y="127" width="60" height="20" as="geometry"/>
                </mxCell>
                <mxCell id="35" value="SQL Query" style="text;html=1;strokeColor=none;fillColor=none;align=center;verticalAlign=middle;whiteSpace=wrap;rounded=0;strokeWidth=1;fontColor=#000000;" parent="1" vertex="1">
                    <mxGeometry x="463" y="145.75" width="70" height="20" as="geometry"/>
                </mxCell>
                <mxCell id="41" style="edgeStyle=none;html=1;exitX=0;exitY=1;exitDx=0;exitDy=0;strokeColor=#000000;fontColor=#000000;endArrow=open;endFill=0;targetPerimeterSpacing=18;entryX=1.026;entryY=0.931;entryDx=0;entryDy=0;entryPerimeter=0;" parent="1" edge="1">
                    <mxGeometry relative="1" as="geometry">
                        <mxPoint x="434.48" y="231.24999999999994" as="sourcePoint"/>
                        <mxPoint x="331" y="230.858" as="targetPoint"/>
                    </mxGeometry>
                </mxCell>
                <mxCell id="43" style="edgeStyle=none;html=1;exitX=0;exitY=1;exitDx=0;exitDy=0;strokeColor=#000000;fontColor=#000000;endArrow=open;endFill=0;targetPerimeterSpacing=18;entryX=1.026;entryY=0.931;entryDx=0;entryDy=0;entryPerimeter=0;" parent="1" edge="1">
                    <mxGeometry relative="1" as="geometry">
                        <mxPoint x="323.48" y="241.24999999999994" as="sourcePoint"/>
                        <mxPoint x="220" y="240.858" as="targetPoint"/>
                    </mxGeometry>
                </mxCell>
                <mxCell id="20" value="" style="html=1;strokeColor=#10739e;strokeWidth=1;fillColor=#b1ddf0;" parent="1" vertex="1">
                    <mxGeometry x="310" y="131" width="20" height="118" as="geometry"/>
                </mxCell>
                <mxCell id="17" value="" style="html=1;strokeColor=#10739e;strokeWidth=1;fillColor=#b1ddf0;" parent="1" vertex="1">
                    <mxGeometry x="431" y="131" width="20" height="118" as="geometry"/>
                </mxCell>
                <mxCell id="47" value="IsValidated" style="text;html=1;strokeColor=none;fillColor=none;align=center;verticalAlign=middle;whiteSpace=wrap;rounded=0;strokeWidth=1;fontColor=#000000;" parent="1" vertex="1">
                    <mxGeometry x="221.00000000000003" y="265" width="70" height="20" as="geometry"/>
                </mxCell>
                <mxCell id="49" style="edgeStyle=none;html=1;exitX=0;exitY=0.75;exitDx=0;exitDy=0;strokeColor=#000000;fontColor=#000000;endArrow=open;endFill=0;targetPerimeterSpacing=18;" parent="1" source="48" edge="1">
                    <mxGeometry relative="1" as="geometry">
                        <mxPoint x="220" y="319" as="targetPoint"/>
                    </mxGeometry>
                </mxCell>
                <mxCell id="48" value="" style="html=1;strokeColor=#10739e;strokeWidth=1;fillColor=#b1ddf0;" parent="1" vertex="1">
                    <mxGeometry x="310" y="274" width="20" height="60" as="geometry"/>
                </mxCell>
                <mxCell id="51" style="edgeStyle=none;html=1;exitX=0.5;exitY=0;exitDx=0;exitDy=0;entryX=0.506;entryY=1.049;entryDx=0;entryDy=0;entryPerimeter=0;strokeColor=#000000;fontColor=#000000;endArrow=none;endFill=0;targetPerimeterSpacing=18;dashed=1;" parent="1" source="50" target="48" edge="1">
                    <mxGeometry relative="1" as="geometry"/>
                </mxCell>
                <mxCell id="50" value="ms-Identity" style="html=1;strokeColor=#006EAF;strokeWidth=2;fillColor=#1ba1e2;fontColor=#ffffff;" parent="1" vertex="1">
                    <mxGeometry x="275" y="355" width="90" height="25" as="geometry"/>
                </mxCell>
                <mxCell id="57" value="" style="html=1;strokeColor=#10739e;strokeWidth=1;fillColor=#b1ddf0;" parent="1" vertex="1">
                    <mxGeometry x="594" y="274" width="20" height="25" as="geometry"/>
                </mxCell>
                <mxCell id="58" value="" style="rounded=0;whiteSpace=wrap;html=1;sketch=0;strokeColor=#000000;strokeWidth=2;fontColor=#000000;fillColor=none;gradientColor=none;" parent="1" vertex="1">
                    <mxGeometry x="393" y="270" width="237" height="123" as="geometry"/>
                </mxCell>
                <mxCell id="59" value="Process" style="text;html=1;strokeColor=none;fillColor=none;align=center;verticalAlign=middle;whiteSpace=wrap;rounded=0;sketch=0;strokeWidth=2;fontColor=#000000;" parent="1" vertex="1">
                    <mxGeometry x="517.5" y="277" width="59" height="19" as="geometry"/>
                </mxCell>
                <mxCell id="60" style="edgeStyle=none;html=1;entryX=0;entryY=0.25;entryDx=0;entryDy=0;dashed=1;strokeColor=#000000;fontColor=#000000;endArrow=none;endFill=0;targetPerimeterSpacing=18;" parent="1" edge="1">
                    <mxGeometry relative="1" as="geometry">
                        <mxPoint x="594" y="321" as="sourcePoint"/>
                        <mxPoint x="617.5" y="320.615" as="targetPoint"/>
                    </mxGeometry>
                </mxCell>
                <mxCell id="61" value="Object Creation Message" style="text;html=1;strokeColor=none;fillColor=none;align=center;verticalAlign=middle;whiteSpace=wrap;rounded=0;sketch=0;strokeWidth=2;fontColor=#000000;" parent="1" vertex="1">
                    <mxGeometry x="499" y="313" width="96" height="19" as="geometry"/>
                </mxCell>
                <mxCell id="62" style="edgeStyle=none;html=1;entryX=0;entryY=0.25;entryDx=0;entryDy=0;strokeColor=#000000;fontColor=#000000;endArrow=open;endFill=0;targetPerimeterSpacing=1;startArrow=none;startFill=0;" parent="1" edge="1">
                    <mxGeometry relative="1" as="geometry">
                        <mxPoint x="614" y="349" as="sourcePoint"/>
                        <mxPoint x="617.5" y="349.005" as="targetPoint"/>
                    </mxGeometry>
                </mxCell>
                <mxCell id="63" value="Asyncronous call" style="text;html=1;strokeColor=none;fillColor=none;align=center;verticalAlign=middle;whiteSpace=wrap;rounded=0;sketch=0;strokeWidth=2;fontColor=#000000;" parent="1" vertex="1">
                    <mxGeometry x="501.5" y="338" width="96" height="19" as="geometry"/>
                </mxCell>
                <mxCell id="65" style="edgeStyle=none;html=1;entryX=0;entryY=0.25;entryDx=0;entryDy=0;strokeColor=#000000;fontColor=#000000;endArrow=none;endFill=0;targetPerimeterSpacing=18;" parent="1" edge="1">
                    <mxGeometry relative="1" as="geometry">
                        <mxPoint x="598" y="368" as="sourcePoint"/>
                        <mxPoint x="617.5" y="367.995" as="targetPoint"/>
                    </mxGeometry>
                </mxCell>
                <mxCell id="66" value="Message" style="text;html=1;strokeColor=none;fillColor=none;align=center;verticalAlign=middle;whiteSpace=wrap;rounded=0;sketch=0;strokeWidth=2;fontColor=#000000;" parent="1" vertex="1">
                    <mxGeometry x="501.5" y="358" width="96" height="19" as="geometry"/>
                </mxCell>
                <mxCell id="67" value="&amp;lt;text&amp;gt;" style="html=1;strokeColor=#006EAF;strokeWidth=2;fillColor=#1ba1e2;fontColor=#ffffff;" parent="1" vertex="1">
                    <mxGeometry x="461.5" y="278" width="40" height="19" as="geometry"/>
                </mxCell>
                <mxCell id="68" value="Lifeline" style="text;html=1;strokeColor=none;fillColor=none;align=center;verticalAlign=middle;whiteSpace=wrap;rounded=0;sketch=0;strokeWidth=2;fontColor=#000000;" parent="1" vertex="1">
                    <mxGeometry x="399" y="278" width="59" height="19" as="geometry"/>
                </mxCell>
                <mxCell id="71" value="Legend" style="text;html=1;strokeColor=none;fillColor=none;align=center;verticalAlign=middle;whiteSpace=wrap;rounded=0;sketch=0;strokeWidth=2;fontColor=#000000;" parent="1" vertex="1">
                    <mxGeometry x="390" y="251" width="59" height="19" as="geometry"/>
                </mxCell>
            </root>
        </mxGraphModel>
    </diagram>
</mxfile>